# xmcd
#
# Track frame offsets:
#	150
#	15207
#	33778
#	54766
#	74097
#	94108
#	112850
#	135973
#	154267
#	170891
#	183433
#	197584
#	213514
#	239692
#
# Disc length: 3522 seconds
#
# Revision: 1
# Processed by: cddbd v1.5.1PL2 Copyright (c) Steve Scherf et al.
# Submitted via: dBpowerAMP V4.0
#
DISCID=b70dc00e
DTITLE=Blue Plate Special - Can You Dig It
DYEAR=2006
DGENRE=blues
TTITLE0=Hard Enuff
TTITLE1=Can You Dig It
TTITLE2=Workin on Love
TTITLE3=Rocket In Your Pocket
TTITLE4=She's Got My Number
TTITLE5=I Like It Like That
TTITLE6=Right Now
TTITLE7=Feel So Good
TTITLE8=Luck Runs Out
TTITLE9=Yer Bad Behind
TTITLE10=Baby's Been On My Mind
TTITLE11=Don't Lose the Spirit
TTITLE12=Have A Little Faith
TTITLE13=Unclain My Heart
EXTD=
EXTT0=
EXTT1=
EXTT2=
EXTT3=
EXTT4=
EXTT5=
EXTT6=
EXTT7=
EXTT8=
EXTT9=
EXTT10=
EXTT11=
EXTT12=
EXTT13=
PLAYORDER=
